<?xml version="1.0" encoding="UTF-8" standalone="no"?>
<svg
   xmlns:dc="http://purl.org/dc/elements/1.1/"
   xmlns:cc="http://creativecommons.org/ns#"
   xmlns:rdf="http://www.w3.org/1999/02/22-rdf-syntax-ns#"
   xmlns:svg="http://www.w3.org/2000/svg"
   xmlns="http://www.w3.org/2000/svg"
   xmlns:sodipodi="http://sodipodi.sourceforge.net/DTD/sodipodi-0.dtd"
   xmlns:inkscape="http://www.inkscape.org/namespaces/inkscape"
   viewBox="0 0 1600 1200"
   version="1.1"
   id="svg45"
   sodipodi:docname="bomb.svg"
   inkscape:version="0.92.2 (5c3e80d, 2017-08-06)">
  <metadata
     id="metadata49">
    <rdf:RDF>
      <cc:Work
         rdf:about="">
        <dc:format>image/svg+xml</dc:format>
        <dc:type
           rdf:resource="http://purl.org/dc/dcmitype/StillImage" />
      </cc:Work>
    </rdf:RDF>
  </metadata>
  <sodipodi:namedview
     pagecolor="#ffffff"
     bordercolor="#666666"
     borderopacity="1"
     objecttolerance="10"
     gridtolerance="10"
     guidetolerance="10"
     inkscape:pageopacity="0"
     inkscape:pageshadow="2"
     inkscape:window-width="1858"
     inkscape:window-height="1057"
     id="namedview47"
     showgrid="false"
     inkscape:zoom="0.50204581"
     inkscape:cx="794.43647"
     inkscape:cy="726.13901"
     inkscape:window-x="54"
     inkscape:window-y="-8"
     inkscape:window-maximized="1"
     inkscape:current-layer="svg45" />
  <defs
     id="defs5">
    <filter
       id="a"
       color-interpolation-filters="sRGB">
      <feGaussianBlur
         stdDeviation="3.42208"
         id="feGaussianBlur2" />
    </filter>
  </defs>
  <g
     id="g3771"
     inkscape:export-xdpi="96"
     inkscape:export-ydpi="96">
    <path
       d="m 1132.6786,262.11405 -25.6793,7.33578 c -0.3513,-0.0286 -1.2621,0.0163 -1.8176,0 -23.8781,-0.7107 -48.0216,1.60522 -72.4511,7.33987 -48.27077,11.32227 -94.45027,38.72118 -133.90258,84.37378 -46.95556,-18.27002 -91.2276,-15.33326 -106.38522,10.08875 l -14.67566,24.76032 C 627.1058,364.958 466.63346,429.77105 383.41151,569.34702 278.29657,745.63051 336.43961,973.23183 512.7231,1078.359 c 176.28349,105.1109 403.8848,47.8909 509.012,-128.39664 83.2873,-139.68626 64.3107,-311.4196 -34.85315,-429.20062 l 14.67565,-24.76032 c 13.8261,-23.16735 -0.3553,-58.99262 -32.10018,-89.8797 25.63848,-27.14976 52.62488,-41.80091 81.62488,-48.60162 16.7955,-3.94156 34.8818,-4.68902 53.1885,-3.67198 l 27.5174,12.84171 4.5828,-20.17749 15.5906,-10.08875 -16.5055,-24.76032 20.1734,-26.59835 -21.0924,-3.66789 -1.8176,-19.25848 z"
       id="path7"
       inkscape:connector-curvature="0"
       style="fill-rule:evenodd;stroke:#000000;stroke-width:37.26873016" />
    <path
       d="M 1022.1767,949.9958 A 371.63667,371.63667 0 1 1 383.80915,569.34644 371.63667,371.63667 0 1 1 1022.1767,949.9958 Z"
       id="path9"
       inkscape:connector-curvature="0"
       style="fill:#302d2e;fill-rule:evenodd;stroke:#000000;stroke-width:5.35933876" />
    <path
       d="M 930.9037,376.72548 C 873.18545,342.30937 811.31325,340.18134 792.70829,371.38294 l -36.32357,60.62642 c -18.61721,31.18934 12.98058,84.12871 70.70292,118.54482 57.72233,34.4161 119.79467,37.33653 138.39555,6.13085 l 36.32361,-60.62642 c 18.6172,-31.19343 -13.17668,-84.91703 -70.89902,-119.33313 z"
       id="path11"
       inkscape:connector-curvature="0"
       style="fill:#333031;fill-rule:evenodd;stroke:#000000;stroke-width:18.6061821" />
    <path
       d="m 798.48379,361.04095 -33.01103,55.94557 c -3.05522,0.11845 -6.35142,-0.47789 -9.20649,-0.11845 -18.77651,2.29958 -33.31329,9.46382 -41.16373,21.29257 -20.95763,31.54061 14.85129,85.34589 80.0442,120.27665 57.02797,30.56032 117.68707,36.57273 145.96007,16.44016 -14.92072,4.86057 -34.63258,4.1417 -55.81895,-0.78422 0,-0.17564 -0.29409,-0.40437 0,-0.61268 l 36.68709,-71.43405 c -10.58297,-2.80197 -21.652,-7.00902 -32.63525,-11.9717 L 856.1081,560.98194 814.36029,541.97262 850.5164,467.6549 C 804.95366,433.81472 782.01912,388.64817 798.48379,361.01644 Z M 499.34632,471.94773 c -39.04386,27.57863 -73.29658,63.68572 -99.35986,107.38593 -99.65395,167.1546 -45.01133,383.23759 122.13919,482.91194 97.9262,58.3881 212.72143,63.0935 311.05199,23.9434 -57.7836,-6.96 -115.20777,-25.3199 -168.4208,-57.0484 -193.32,-115.269 -262.64235,-358.57935 -165.41052,-557.20921 z"
       id="path13"
       inkscape:connector-curvature="0"
       style="fill-opacity:0.48936014;fill-rule:evenodd;stroke-width:4.08451271" />
    <path
       d="M 968.2649,631.81767 A 98.832626,75.577565 50.416933 1 1 851.7694,728.13315 98.832626,75.577565 50.416933 1 1 968.2649,631.81767 Z"
       id="path15"
       inkscape:connector-curvature="0"
       style="fill:#ffffff;fill-opacity:0.92021;fill-rule:evenodd;stroke-width:18.41670799" />
    <path
       d="m 943.03983,808.7959 a 58.215147,44.517273 50.418637 1 1 -68.62075,56.73044 58.215147,44.517273 50.418637 1 1 68.62075,-56.73044 z"
       id="path17"
       inkscape:connector-curvature="0"
       style="fill:#ffffff;fill-opacity:0.92021;fill-rule:evenodd;stroke-width:10.84794998" />
    <path
       d="M 930.88286,376.71687 C 873.16242,342.30528 811.2937,340.17279 792.68481,371.37504 l -36.32128,60.62742 c -18.6195,31.19163 12.9806,84.12723 70.70104,118.54413 57.72575,34.41689 119.79604,37.33978 138.39963,6.13223 l 36.3213,-60.62742 c 18.6195,-31.19163 -13.1769,-84.91763 -70.89734,-119.33453 z"
       id="path19"
       inkscape:connector-curvature="0"
       style="fill:none;stroke:#000000;stroke-width:24.16450119" />
    <path
       d="m 1051.0701,357.48742 c -42.8016,10.03974 -81.46973,35.43315 -117.38893,96.29648 l -2.75705,3.66789 c -8.07916,7.85044 -27.88497,6.12269 -45.85682,-4.58691 -18.30271,-10.90973 -28.47314,-26.81482 -24.76032,-37.59794 1.02521,-1.75225 3.66789,-6.42085 3.66789,-6.42085 45.21147,-74.99983 105.52339,-117.22961 168.74753,-132.06456 24.4295,-5.73057 48.5731,-8.04649 72.4511,-7.33578 0.5841,0.0163 1.2009,-0.0245 1.5562,0.008 l 25.5854,-6.90692 2.2914,18.63764 21.2109,4.21113 -20.492,26.60652 16.8895,24.59285 -16.3177,10.11734 -4.5869,20.12848 -27.1089,-12.71918 c -18.3109,-1.01704 -36.3481,-0.57591 -53.1436,3.36564 z"
       id="path21"
       inkscape:connector-curvature="0"
       style="fill:#ccab7f;fill-rule:evenodd;stroke:#000000;stroke-width:18.6061821" />
    <path
       d="m 897.12478,365.90152 c -1.14452,50.43965 22.23649,79.52138 36.68423,82.53984"
       id="path23"
       inkscape:connector-curvature="0"
       style="fill:none;stroke:#000000;stroke-width:9.31718254;stroke-linecap:round;stroke-opacity:0.68616997" />
    <path
       d="m 940.62484,327.75217 c -7.67153,49.86373 11.74175,81.73519 25.67892,86.59984"
       id="path25"
       inkscape:connector-curvature="0"
       style="fill:none;stroke:#000000;stroke-width:9.31718254;stroke-linecap:round;stroke-opacity:0.68616997" />
    <path
       d="m 990.86435,292.91127 c -17.15087,47.44571 -4.25239,82.46223 8.48435,89.92464"
       id="path27"
       inkscape:connector-curvature="0"
       style="fill:none;stroke:#000000;stroke-width:9.31718254;stroke-linecap:round;stroke-opacity:0.68616997" />
    <path
       d="m 1045.6377,273.50984 c -25.7378,43.39386 -19.6278,80.20758 -8.5285,89.92055"
       id="path29"
       inkscape:connector-curvature="0"
       style="fill:none;stroke:#000000;stroke-width:9.31718254;stroke-linecap:round;stroke-opacity:0.68616997" />
    <path
       d="m 1132.6786,262.11405 -24.7644,7.33578 a 4.6592039,4.6592039 0 0 0 0,-0.91493 4.6592039,4.6592039 0 0 0 0,-0.91493 4.6592039,4.6592039 0 0 0 0,-0.91493 4.6592039,4.6592039 0 0 0 -0.9108,-0.91493 4.6592039,4.6592039 0 0 0 -0.9068,-0.91902 4.6592039,4.6592039 0 0 0 -0.9108,-0.91493 4.6592039,4.6592039 0 0 0 -0.9109,0 4.6592039,4.6592039 0 0 0 -0.9067,0 4.6592039,4.6592039 0 0 0 -0.9109,0 4.6592039,4.6592039 0 0 0 -0.9108,0.91493 4.6592039,4.6592039 0 0 0 -0.9109,0 4.6592039,4.6592039 0 0 0 -0.9067,0.91902 c -1.0865,1.20901 -1.7319,2.45887 -2.7612,3.66789 -4.881,0.20423 -9.7293,0.65761 -14.6715,0.91493 l 2.757,7.33579 c -4.0191,0.35943 -6.7027,1.95239 -10.0887,3.66789 -13.4013,6.8048 2.4343,4.99536 4.5869,9.17382 0.4084,0.59225 -10.6279,4.32549 -11.0078,5.50183 -1.1722,3.55761 3.7251,10.50537 2.7611,13.75664 -1.2335,3.83945 -9.039,5.04438 -10.0887,8.2548 -1.0538,3.26761 3.6556,7.38072 8.2589,11.00368 -1.5848,12.64157 -0.4126,22.87327 4.5828,29.34723 a 4.6592039,4.6592039 0 0 0 0.9109,0.91493 4.6592039,4.6592039 0 0 0 0.9067,0 4.6592039,4.6592039 0 0 0 0.9109,0.91901 4.6592039,4.6592039 0 0 0 0.9108,0 4.6592039,4.6592039 0 0 0 0.9109,0 4.6592039,4.6592039 0 0 0 0.9067,-0.91901 4.6592039,4.6592039 0 0 0 0.9109,0 4.6592039,4.6592039 0 0 0 0.9108,-0.91493 4.6592039,4.6592039 0 0 0 0.9068,-0.91493 4.6592039,4.6592039 0 0 0 0,-0.91493 4.6592039,4.6592039 0 0 0 0,-0.91494 4.6592039,4.6592039 0 0 0 0,-0.91901 4.6592039,4.6592039 0 0 0 0,-0.91493 4.6592039,4.6592039 0 0 0 -0.9068,-0.91493 c -1.1763,-1.51536 -2.1444,-4.61959 -2.7611,-8.2548 2.32,0.78831 9.6149,3.65972 10.0928,4.5869 0.8782,1.72367 1.9075,2.91635 2.7571,4.58691 4.2274,0.0572 8.5693,-0.2369 12.8376,0 l 27.5133,12.83763 4.5869,-20.17341 15.5865,-10.08875 -16.5015,-24.7644 20.1694,-26.59426 -21.0884,-3.6679 -1.8217,-19.26256 z"
       id="path31"
       inkscape:connector-curvature="0"
       style="fill-opacity:0.68627002;stroke-width:4.08451271" />
  </g>
  <g
     style="fill-rule:evenodd"
     id="g41"
     transform="matrix(0.7403851,1.5949113,-1.5579605,0.73398322,-170.66741,-76.30022)"
     inkscape:export-xdpi="96"
     inkscape:export-ydpi="96">
    <path
       style="fill:#aa0000;stroke:#800000;stroke-width:3"
       inkscape:connector-curvature="0"
       id="path33"
       d="m 718.8,-1014.3 -59.895,-64.69 6.769,45.1 -31.846,-60.99 -18.293,51.55 -2.229,-54.04 -91.399,119.2 60.136,-118.52 -64.72,17.52 62.54,-49.84 -44.982,-9.94 45.245,-10.66 -97.426,-43.93 104.79,23.43 -32.361,-39.29 41.462,17.33 -4.566,-48.69 30.643,48.5 17.89,-98.7 5.758,98.68 36.338,-39.11 -3.998,29.42 50.732,-30.04 -53.552,71.36 79.291,-1.3 -57.554,25.9 100.93,60.74 -129.49,-41.73 z" />
    <path
       style="fill:#e44f30;filter:url(#a)"
       inkscape:connector-curvature="0"
       id="path35"
       d="m 641.12,-1257.8 -13.562,66.56 a 5.0051,5.0051 0 0 1 -9.125,1.69 l -19.5,-30.87 2.625,27.9 a 5.0051,5.0051 0 0 1 -7.188,4.94 l -28.5,-14.22 25.344,28.37 a 5.0051,5.0051 0 0 1 -4.812,8.22 l -70.375,-15.56 65.969,26.53 a 5.0051,5.0051 0 0 1 -0.531,9.47 l -29.531,8.22 28.406,2.59 a 5.0051,5.0051 0 0 1 2.656,8.88 l -43.625,34.75 41.344,-11.19 a 5.0051,5.0051 0 0 1 5.781,7.09 l -35.719,70.41 58.562,-76.37 a 5.0051,5.0051 0 0 1 8.969,2.81 l 1.156,28.22 9.656,-27.19 a 5.0051,5.0051 0 0 1 9.157,-0.63 l 18.031,34.54 -2.344,-15.6 a 5.0051,5.0051 0 0 1 8.594,-4.16 l 37.094,40.07 -35.156,-72.5 a 5.0051,5.0051 0 0 1 5.562,-7.07 l 91.531,19.88 -66.062,-29.47 a 5.0051,5.0051 0 0 1 -0.031,-9.12 l 35.406,-15.91 -54.969,0.91 a 5.0051,5.0051 0 0 1 -3.969,-8.19 l 53.562,-65.28 -43.969,31.22 a 5.0051,5.0051 0 0 1 -7.875,-4.79 l 1.875,-13.75 -25.594,27.54 a 5.0051,5.0051 0 0 1 -8.656,-3.41 l -0.188,-65.53 z" />
    <path
       style="fill:#ffcc00;filter:url(#a)"
       inkscape:connector-curvature="0"
       id="path37"
       d="m 637.72,-1223.6 -6.719,33 a 8.5144,8.5144 0 0 1 -15.531,2.84 l -11.656,-18.47 1.25,13.35 a 8.5144,8.5144 0 0 1 -12.281,8.41 l -12.031,-6 13.094,14.65 a 8.5144,8.5144 0 0 1 -8.187,14 l -28.844,-6.37 26.5,10.65 a 8.5144,8.5144 0 0 1 -0.907,16.1 l -11.094,3.09 9.344,0.84 a 8.5144,8.5144 0 0 1 4.531,15.13 l -30.406,24.22 25.031,-6.78 a 8.5144,8.5144 0 0 1 9.813,12.06 l -18.531,36.56 35.469,-46.28 a 8.5144,8.5144 0 0 1 15.25,4.84 l 0.406,10.1 3.594,-10.1 a 8.5144,8.5144 0 0 1 15.562,-1.09 l 9.281,17.75 a 8.5144,8.5144 0 0 1 14.5,-3.72 l 21.031,22.72 -24.844,-51.25 a 8.5144,8.5144 0 0 1 9.469,-12.03 l 58.219,12.65 -34.938,-15.59 a 8.5144,8.5144 0 0 1 -0.031,-15.53 l 19.875,-8.94 -37.938,0.63 a 8.5144,8.5144 0 0 1 -6.75,-13.91 l 36.969,-45.06 -22.625,16.06 a 8.5144,8.5144 0 0 1 -13.375,-8.09 l 0.375,-2.78 -18.031,19.4 a 8.5144,8.5144 0 0 1 -14.75,-5.75 z" />
    <path
       style="fill:#ffcc00;filter:url(#a)"
       inkscape:connector-curvature="0"
       id="path39"
       d="m 667,-1190 -8.438,9.06 a 16.742,16.742 0 0 1 -24.062,0.44 16.742,16.742 0 0 1 -24.812,-1.25 16.742,16.742 0 0 1 -6.781,5.13 16.742,16.742 0 0 1 -7.156,21 16.742,16.742 0 0 1 -2.594,16.4 16.742,16.742 0 0 1 -2.844,23.25 l -3.875,3.09 a 16.742,16.742 0 0 1 10.75,8.97 l 2.844,-3.72 a 16.742,16.742 0 0 1 25.125,-1.62 16.742,16.742 0 0 1 23.531,6.56 l 4.188,8.03 a 16.742,16.742 0 0 1 7.906,-1.03 l -6.844,-14.09 a 16.742,16.742 0 0 1 18.625,-23.66 l 8.938,1.94 a 16.742,16.742 0 0 1 1.343,-12.56 l -6.718,0.12 a 16.742,16.742 0 0 1 -13.219,-27.37 l 11.875,-14.47 a 16.742,16.742 0 0 1 -7.8,-4.1 z" />
  </g>
</svg>
